<svg id="visual" viewBox="0 0 960 540" width="960" height="540" xmlns="http://www.w3.org/2000/svg" xmlns:xlink="http://www.w3.org/1999/xlink" version="1.1"><path d="M0 508L26.7 490.5C53.3 473 106.7 438 160 441.5C213.3 445 266.7 487 320 504.3C373.3 521.7 426.7 514.3 480 500.3C533.3 486.3 586.7 465.7 640 464.5C693.3 463.3 746.7 481.7 800 483C853.3 484.3 906.7 468.7 933.3 460.8L960 453L960 541L933.3 541C906.7 541 853.3 541 800 541C746.7 541 693.3 541 640 541C586.7 541 533.3 541 480 541C426.7 541 373.3 541 320 541C266.7 541 213.3 541 160 541C106.7 541 53.3 541 26.7 541L0 541Z" fill="#e2f8f4" stroke-linecap="round" stroke-linejoin="miter"></path></svg>